<svg viewBox="0 0 24 24" xmlns="http://www.w3.org/2000/svg" xmlns:xlink="http://www.w3.org/1999/xlink" width="24.000000" height="24.000000" fill="none">
	<rect id="Component 2" width="24.000000" height="24.000000" x="0.000000" y="0.000000" fill="rgb(255,255,255)" fill-opacity="0" />
	<path id="Vector" d="M20 20L16.2223 16.2156M16.2193 16.2193C14.8769 17.5617 13.0563 18.3158 11.1579 18.3158C9.2595 18.3158 7.43886 17.5617 6.0965 16.2193C4.75413 14.8769 4 13.0563 4 11.1579C4 9.2595 4.75413 7.43886 6.0965 6.0965C7.43886 4.75413 9.2595 4 11.1579 4C13.0563 4 14.8769 4.75413 16.2193 6.0965C17.5617 7.43886 18.3158 9.2595 18.3158 11.1579C18.3158 13.0563 17.5617 14.8769 16.2193 16.2193Z" fill-rule="nonzero" stroke="rgb(0,0,0)" stroke-linecap="round" stroke-width="1.5" />
</svg>
