<svg viewBox="0 0 32 32" xmlns="http://www.w3.org/2000/svg" xmlns:xlink="http://www.w3.org/1999/xlink" width="32.000000" height="32.000000" fill="none" customFrame="#000000">
	<defs>
		<clipPath id="clipPath_0">
			<rect width="32.000000" height="32.000000" x="0.000000" y="0.000000" fill="rgb(255,255,255)" />
		</clipPath>
	</defs>
	<rect id="Cart1 with buy" width="32.000000" height="32.000000" x="0.000000" y="0.000000" />
	<g id="Cart1" clip-path="url(#clipPath_0)" customFrame="url(#clipPath_0)">
		<rect id="Cart1" width="32.000000" height="32.000000" x="0.000000" y="0.000000" fill="rgb(255,255,255)" fill-opacity="0" />
		<path id="Vector" d="M11 27C10.4477 27 10 26.5523 10 26C10 25.4477 10.4477 25 11 25C11.5523 25 12 25.4477 12 26C12 26.5523 11.5523 27 11 27Z" stroke="rgb(0,0,0)" stroke-linecap="round" stroke-linejoin="round" stroke-width="1.5" />
		<path id="Vector" d="M25 27C24.4477 27 24 26.5523 24 26C24 25.4477 24.4477 25 25 25C25.5523 25 26 25.4477 26 26C26 26.5523 25.5523 27 25 27Z" stroke="rgb(0,0,0)" stroke-linecap="round" stroke-linejoin="round" stroke-width="1.5" />
		<path id="Vector" d="M3 5L7 5L10 22L26 22" fill-rule="nonzero" stroke="rgb(0,0,0)" stroke-linecap="round" stroke-linejoin="round" stroke-width="1.5" />
		<path id="Vector" d="M10 16.6667L25.59 16.6667C25.7056 16.6667 25.8177 16.6267 25.9072 16.5535C25.9966 16.4802 26.0579 16.3782 26.0806 16.2648L27.8806 7.26479C27.8951 7.19222 27.8934 7.11733 27.8755 7.04552C27.8575 6.97371 27.8239 6.90678 27.7769 6.84956C27.73 6.79234 27.6709 6.74625 27.604 6.71462C27.5371 6.68299 27.464 6.66661 27.39 6.66666L8 6.66666" fill-rule="nonzero" stroke="rgb(0,0,0)" stroke-linecap="round" stroke-linejoin="round" stroke-width="1.5" />
	</g>
</svg>
